# Blender 4.0.2
# www.blender.org
mtllib Island.mtl
g Vert.001_Mesh
v -0.479613 0.000000 0.000000
v -5.176027 -0.054588 -3.336291
v -3.659062 -0.013864 -4.826910
v -1.427369 -0.010186 -4.920507
v 0.954355 0.005564 -5.342489
v 2.650045 -0.008828 -4.259378
v 4.995467 -0.033494 -2.987480
v 5.323174 -0.012751 -1.660922
v 6.446528 -0.012075 0.461792
v 5.578149 0.004012 1.774649
v 6.135271 -0.047928 3.527107
v 4.685674 0.039802 4.039591
v 3.594241 0.091485 4.387203
v 1.041767 0.015617 4.244715
v -2.214267 0.038007 5.058011
v -4.543947 -0.020906 3.429180
v -4.609421 0.036844 0.315050
v -6.431394 -0.062667 -0.579673
v -5.224092 0.003844 -1.879644
v -0.492995 0.062558 0.001450
v -0.456256 0.147964 -0.002531
v -5.097267 -0.024117 -3.274419
v 3.529803 0.125989 4.463092
v 1.042005 0.087365 4.374865
v -2.130735 -0.002029 4.898680
v -6.060181 -0.047227 -0.599620
v -5.237737 0.256625 -1.891243
v -5.253684 0.284111 -3.409811
v -3.709792 0.325558 -4.926889
v -1.438486 0.329302 -5.022147
v 0.985513 0.345331 -5.451620
v 2.711303 0.330684 -4.349283
v 5.098355 0.305580 -3.054808
v 5.431879 0.326691 -1.704704
v 6.575173 0.327379 0.455689
v 5.691380 0.343751 1.791849
v 6.258391 0.290889 3.575413
v 4.783064 0.380177 4.096994
v 3.672257 0.432777 4.450777
v -2.239353 0.378350 5.133491
v -4.610384 0.318391 3.475748
v -4.677021 0.377167 0.306341
v -6.531333 0.275889 -0.604263
v -5.173525 0.315124 -3.346841
v -3.608309 0.505124 -4.843401
v -1.404295 0.557033 -5.042170
v 0.985794 0.548836 -5.341416
v 2.599940 0.545127 -4.176628
v 4.806103 0.737086 -2.819543
v 5.383616 0.575563 -1.699057
v 6.213091 0.312779 0.448665
v 5.771602 0.710645 1.745303
v 5.850241 0.466598 3.346853
v 4.762603 0.661916 4.189943
v 3.606676 0.467893 4.528012
v 1.074719 0.428584 4.438219
v -2.154338 0.337603 4.971332
v -4.414970 0.503134 3.346348
v -4.744837 0.299273 0.382483
v -6.153531 0.291603 -0.624564
v -5.316489 0.600848 -1.939113
v -2.775673 0.756590 -2.105947
v -2.018496 0.675884 -2.664114
v -0.776335 0.644614 -3.164663
v 0.467554 0.719630 -2.925605
v 1.794165 0.800524 -2.530455
v 2.607997 0.599118 -1.820688
v 3.463399 0.627632 -0.784776
v 3.517137 0.554774 0.050012
v 3.807368 0.611809 1.152963
v 3.329277 0.509551 1.837043
v 2.999234 0.738232 2.488457
v 1.916835 0.568769 2.676637
v 0.529986 0.598619 2.901797
v -1.037991 0.702002 2.530172
v -2.205884 0.571618 1.737453
v -3.186245 0.712241 0.737827
v -3.173201 0.603730 -0.473802
v -3.463180 0.685489 -1.228733
v 0.495817 0.674890 -0.135546
vn -0.7291 -0.0706 -0.6807
vn -0.0617 0.9599 -0.2736
vn 0.0038 -0.9091 0.4165
vn -0.3269 0.9438 -0.0486
vn 0.3101 -0.2437 0.9189
vn -0.9719 -0.2296 -0.0521
vn -0.0397 -0.2878 -0.9569
vn 0.9101 -0.2882 -0.2979
vn 0.6648 -0.2809 0.6922
vn -0.4371 -0.0639 0.8972
vn -0.6643 -0.3008 -0.6843
vn 0.7960 -0.2921 0.5301
vn -0.7863 -0.2580 -0.5614
vn -0.9808 -0.1944 0.0170
vn -0.0498 -0.0870 -0.9950
vn 0.8360 -0.3248 -0.4423
vn 0.8808 -0.0397 0.4718
vn -0.5554 -0.2189 0.8023
vn 0.9199 -0.3232 -0.2222
vn 0.4517 -0.3036 -0.8389
vn -0.6239 0.0265 0.7811
vn 0.5108 -0.3050 -0.8038
vn 0.1651 -0.1953 0.9667
vn 0.2845 -0.2380 0.9287
vn -0.1652 -0.2878 -0.9433
vn -0.0321 -0.1795 0.9832
vn 0.2789 -0.2825 0.9178
vn -0.1738 -0.0603 -0.9829
vn 0.1855 0.9108 0.3689
vn -0.0384 0.4390 -0.8977
vn 0.4467 0.8872 -0.1157
vn -0.0428 0.9988 -0.0239
vn -0.2171 0.9565 -0.1948
vn 0.8282 -0.1114 0.5492
vn 0.7402 -0.6718 -0.0280
vn -0.0407 0.9989 0.0212
vn -0.3813 0.7659 0.5177
vn 0.7585 0.6212 -0.1971
vn 0.3765 0.6269 -0.6821
vn 0.4925 0.4139 -0.7656
vn -0.0038 0.9893 0.1459
vn -0.0729 0.9971 -0.0226
vn -0.0180 0.9973 0.0708
vn -0.0733 0.9759 -0.2055
vn 0.0460 0.9971 -0.0606
vn -0.1163 0.9795 0.1645
vn -0.0023 0.9989 -0.0458
vn 0.0869 0.9893 -0.1170
vn -0.1071 0.9809 0.1626
vn -0.0287 0.9979 -0.0573
vn -0.0753 0.9852 0.1538
vn -0.1104 0.9830 0.1469
vn -0.1599 0.9862 -0.0420
vn 0.0367 0.9588 -0.2817
vn -0.2476 0.9681 -0.0390
vn 0.0755 0.9929 0.0923
vn 0.0214 0.9972 0.0718
vn 0.0762 0.9917 0.1037
vn -0.0162 0.9975 0.0682
vn -0.0302 0.9924 0.1191
vn -0.0111 0.9959 -0.0893
vn 0.0351 0.9938 0.1054
vn -0.0750 0.9958 -0.0533
vn 0.0600 0.9979 0.0244
vn 0.0255 0.9994 0.0248
vn -0.1358 0.9851 0.1058
vn 0.2128 0.9506 -0.2259
vn -0.0305 0.9914 0.1269
vn 0.0435 0.9971 -0.0630
vn 0.0344 0.9958 0.0847
vn 0.0084 0.9994 -0.0344
vn 0.1346 0.9830 0.1246
vn -0.0658 0.9977 0.0167
vn -0.0634 0.9979 0.0166
vn 0.0181 0.9997 -0.0176
vn 0.0614 0.9963 -0.0607
vn -0.0293 0.9770 0.2112
vn 0.1038 -0.8711 0.4800
vn -0.0035 -0.8757 0.4828
vn -0.9943 -0.0578 -0.0893
vn 0.2990 -0.7472 0.5936
vn -0.1078 0.4735 -0.8742
vn 0.5729 -0.2190 0.7898
vn -0.0878 -0.0742 -0.9934
vn 0.9714 -0.2228 -0.0816
vn 0.3570 -0.7931 -0.4934
vn -0.5943 0.5900 -0.5466
vn -0.0325 0.9523 -0.3033
vn -0.6780 0.7346 0.0249
vn 0.9239 0.1867 -0.3340
vn 0.1792 0.9723 -0.1503
vn 0.8845 0.1813 -0.4298
vn 0.3346 0.6903 -0.6415
vn 0.4239 0.6913 -0.5852
vn 0.0431 0.9946 0.0948
vn 0.2590 0.9656 -0.0230
vn 0.0371 0.9946 0.0969
vn -0.0589 0.9977 0.0347
vn -0.0127 0.9871 -0.1594
vn -0.1242 0.9782 0.1666
vn -0.0447 0.9958 -0.0800
vn 0.2430 0.9472 -0.2094
vn -0.1104 0.9827 0.1488
vn 0.0056 0.9988 -0.0485
vn -0.0782 0.9925 0.0937
vn -0.2361 0.9676 -0.0892
vn 0.0316 0.9944 -0.1009
vn 0.1005 0.9919 -0.0777
vn 0.0414 0.9942 0.0992
vn 0.0663 0.9944 0.0825
vn -0.1600 0.9844 0.0738
vn -0.0546 0.9983 0.0176
vt 0.741989 0.789041
vt 0.731692 0.786286
vt 0.731575 0.788467
vt 0.677523 0.788365
vt 0.704890 0.788517
vt 0.705611 0.788172
vt 0.656061 0.787413
vt 0.655505 0.787711
vt 0.730481 0.788708
vt 0.731160 0.788971
vt 0.633585 0.788913
vt 0.645250 0.785220
vt 0.646090 0.788157
vt 0.731138 0.785782
vt 0.718074 0.788620
vt 0.698919 0.785659
vt 0.698823 0.788588
vt 0.637415 0.785535
vt 0.638391 0.788465
vt 0.654832 0.784767
vt 0.726856 0.785246
vt 0.726272 0.788182
vt 0.731830 0.786049
vt 0.630900 0.788604
vt 0.739592 0.785984
vt 0.738787 0.788907
vt 0.725708 0.788680
vt 0.639653 0.785682
vt 0.640591 0.788610
vt 0.705094 0.785588
vt 0.726281 0.785753
vt 0.643418 0.788789
vt 0.663122 0.785647
vt 0.663650 0.788576
vt 0.678277 0.788452
vt 0.677521 0.787746
vt 0.677239 0.784803
vt 0.645426 0.782790
vt 0.698624 0.783695
vt 0.678009 0.785521
vt 0.636044 0.784475
vt 0.632523 0.785991
vt 0.717636 0.784142
vt 0.718512 0.785691
vt 0.742851 0.786120
vt 0.629791 0.785676
vt 0.636723 0.782370
vt 0.727440 0.785918
vt 0.632914 0.785802
vt 0.705827 0.785236
vt 0.724595 0.784160
vt 0.645051 0.782142
vt 0.642530 0.785864
vt 0.678006 0.783765
vt 0.695464 0.782444
vt 0.664082 0.783798
vt 0.664013 0.783332
vt 0.669975 0.783593
vt 0.655398 0.784464
vt 0.732372 0.783317
vt 0.710454 0.781973
vt 0.682477 0.782292
vt 0.660638 0.782132
vt 0.693207 0.782939
vt 0.657791 0.784104
vt 0.716385 0.782587
vt 0.703922 0.782670
vt 0.713883 0.783292
vt 0.653667 0.783222
vt 0.713996 0.782356
vt 0.640069 0.783535
vt 0.656170 0.783714
vt 0.705539 0.783569
vt 0.656634 0.783086
vt 0.682233 0.782678
vt 0.681938 0.783336
vt 0.671033 0.781594
s 0
g off
g Vert.001_Grass
usemtl Grass
f 18/1/1 27/2/1 19/3/1
f 14/4/2 25/5/2 15/6/2
f 23/7/3 14/4/3 13/8/3
f 19/3/4 22/9/4 2/10/4
f 11/11/5 38/12/5 12/13/5
f 27/2/6 44/14/6 22/9/6
f 3/15/7 30/16/7 4/17/7
f 36/18/8 11/11/8 10/19/8
f 39/20/9 23/7/9 13/8/9
f 42/21/10 18/1/10 17/22/10
f 28/23/11 3/15/11 2/10/11
f 9/24/12 36/18/12 10/19/12
f 60/25/13 27/2/13 26/26/13
f 16/27/14 42/21/14 17/22/14
f 18/1/15 60/25/15 26/26/15
f 34/28/16 9/24/16 8/29/16
f 57/30/17 15/6/17 25/5/17
f 15/6/18 41/31/18 16/27/18
f 7/32/19 34/28/19 8/29/19
f 32/33/20 7/32/20 6/34/20
f 44/14/21 2/10/21 22/9/21
f 5/35/22 32/33/22 6/34/22
f 24/36/23 57/30/23 25/5/23
f 12/13/24 39/20/24 13/8/24
f 30/16/25 5/35/25 4/17/25
f 23/7/26 56/37/26 24/36/26
f 54/38/27 39/20/27 38/12/27
f 46/39/28 31/40/28 30/16/28
f 53/41/29 38/12/29 37/42/29
f 45/43/30 30/16/30 29/44/30
f 36/18/31 53/41/31 37/42/31
f 42/21/32 60/25/32 43/45/32
f 44/14/33 29/44/33 28/23/33
f 35/46/34 52/47/34 36/18/34
f 41/31/35 59/48/35 42/21/35
f 34/28/36 51/49/36 35/46/36
f 40/50/37 58/51/37 41/31/37
f 49/52/38 34/28/38 33/53/38
f 32/33/39 49/52/39 33/53/39
f 47/54/40 32/33/40 31/40/40
f 56/37/41 75/55/41 57/30/41
f 48/56/42 67/57/42 49/52/42
f 73/58/43 56/37/43 55/59/43
f 61/60/44 62/61/44 44/14/44
f 65/62/45 48/56/45 47/54/45
f 72/63/46 55/59/46 54/38/46
f 64/64/47 47/54/47 46/39/47
f 71/65/48 54/38/48 53/41/48
f 60/25/49 79/66/49 61/60/49
f 63/67/50 46/39/50 45/43/50
f 52/47/51 71/65/51 53/41/51
f 59/48/52 78/68/52 60/25/52
f 62/61/53 45/43/53 44/14/53
f 51/49/54 70/69/54 52/47/54
f 58/51/55 77/70/55 59/48/55
f 50/71/56 69/72/56 51/49/56
f 57/30/57 76/73/57 58/51/57
f 49/52/58 68/74/58 50/71/58
f 62/61/59 79/66/59 80/75/59
f 79/66/60 78/68/60 80/75/60
f 78/68/61 77/70/61 80/75/61
f 77/70/62 76/73/62 80/75/62
f 76/73/63 75/55/63 80/75/63
f 75/55/64 74/76/64 80/75/64
f 74/76/65 73/58/65 80/75/65
f 73/58/66 72/63/66 80/75/66
f 72/63/67 71/65/67 80/75/67
f 71/65/68 70/69/68 80/75/68
f 70/69/69 69/72/69 80/75/69
f 69/72/70 68/74/70 80/75/70
f 68/74/71 67/57/71 80/75/71
f 67/57/72 66/77/72 80/75/72
f 66/77/73 65/62/73 80/75/73
f 65/62/74 64/64/74 80/75/74
f 64/64/75 63/67/75 80/75/75
f 63/67/76 62/61/76 80/75/76
f 18/1/77 26/26/77 27/2/77
f 14/4/78 24/36/78 25/5/78
f 23/7/79 24/36/79 14/4/79
f 19/3/80 27/2/80 22/9/80
f 11/11/5 37/42/5 38/12/5
f 27/2/6 61/60/6 44/14/6
f 3/15/7 29/44/7 30/16/7
f 36/18/8 37/42/8 11/11/8
f 39/20/9 55/59/9 23/7/9
f 42/21/10 43/45/10 18/1/10
f 28/23/11 29/44/11 3/15/11
f 9/24/12 35/46/12 36/18/12
f 60/25/13 61/60/13 27/2/13
f 16/27/14 41/31/14 42/21/14
f 18/1/15 43/45/15 60/25/15
f 34/28/16 35/46/16 9/24/16
f 57/30/17 40/50/17 15/6/17
f 15/6/18 40/50/18 41/31/18
f 7/32/19 33/53/19 34/28/19
f 32/33/20 33/53/20 7/32/20
f 44/14/21 28/23/21 2/10/21
f 5/35/22 31/40/22 32/33/22
f 24/36/23 56/37/23 57/30/23
f 12/13/24 38/12/24 39/20/24
f 30/16/25 31/40/25 5/35/25
f 23/7/26 55/59/26 56/37/26
f 54/38/81 55/59/81 39/20/81
f 46/39/82 47/54/82 31/40/82
f 53/41/83 54/38/83 38/12/83
f 45/43/84 46/39/84 30/16/84
f 36/18/85 52/47/85 53/41/85
f 42/21/86 59/48/86 60/25/86
f 44/14/87 45/43/87 29/44/87
f 35/46/88 51/49/88 52/47/88
f 41/31/89 58/51/89 59/48/89
f 34/28/90 50/71/90 51/49/90
f 40/50/91 57/30/91 58/51/91
f 49/52/92 50/71/92 34/28/92
f 32/33/93 48/56/93 49/52/93
f 47/54/94 48/56/94 32/33/94
f 56/37/95 74/76/95 75/55/95
f 48/56/96 66/77/96 67/57/96
f 73/58/97 74/76/97 56/37/97
f 61/60/98 79/66/98 62/61/98
f 65/62/99 66/77/99 48/56/99
f 72/63/100 73/58/100 55/59/100
f 64/64/101 65/62/101 47/54/101
f 71/65/102 72/63/102 54/38/102
f 60/25/103 78/68/103 79/66/103
f 63/67/104 64/64/104 46/39/104
f 52/47/105 70/69/105 71/65/105
f 59/48/106 77/70/106 78/68/106
f 62/61/107 63/67/107 45/43/107
f 51/49/108 69/72/108 70/69/108
f 58/51/109 76/73/109 77/70/109
f 50/71/110 68/74/110 69/72/110
f 57/30/111 75/55/111 76/73/111
f 49/52/112 67/57/112 68/74/112
l 1 21
l 21 20
