# Blender 4.0.2
# www.blender.org
mtllib Island.mtl
o Vert.001
v -0.479613 0.000000 0.000000
v -5.176027 -0.054588 -3.336291
v -3.659062 -0.013864 -4.826910
v -1.427369 -0.010186 -4.920507
v 0.954355 0.005564 -5.342489
v 2.650045 -0.008828 -4.259378
v 4.995467 -0.033494 -2.987480
v 5.323174 -0.012751 -1.660922
v 6.446528 -0.012075 0.461792
v 5.836228 -0.049653 1.995667
v 5.625420 -0.047928 3.527107
v 4.685674 0.039802 4.039591
v 3.594241 0.091485 5.616590
v 1.041767 0.015617 5.863227
v -2.214267 0.038007 5.058011
v -4.543947 -0.020906 3.429180
v -4.609421 0.036844 0.315050
v -5.206880 -0.110298 -1.150091
v -5.035069 0.003844 -1.879644
v -0.492995 0.062558 0.001450
v -0.456256 0.147964 -0.002531
v -5.097267 -0.024117 -2.386267
v 3.529803 0.125989 5.692478
v 1.042005 0.087365 5.993377
v -1.911422 -0.002029 5.190819
v -5.033306 0.334415 -1.465525
v -5.254778 0.197044 -1.872849
v -5.253684 0.284111 -3.409811
v -3.709792 0.325558 -4.926889
v -1.438486 0.329302 -5.022147
v 0.985513 0.345331 -5.451620
v 2.711303 0.330684 -4.349283
v 5.098355 0.305580 -3.054808
v 5.431879 0.326691 -1.704704
v 6.575173 0.327379 0.455689
v 5.949460 0.290087 2.012867
v 5.748540 0.290889 3.575413
v 4.783064 0.380177 4.096994
v 3.672257 0.432777 5.680162
v -2.239353 0.378350 5.133491
v -4.610384 0.318391 3.475748
v -4.691656 0.169880 0.323827
v -5.201690 0.291293 -0.959273
v -5.173525 0.315124 -2.458689
v -3.608309 0.505124 -4.843401
v -1.404295 0.557033 -5.042170
v 0.985794 0.548836 -5.341416
v 2.599940 0.545127 -4.176628
v 4.806103 0.463743 -2.819543
v 5.383616 0.365121 -1.699057
v 6.213091 0.312779 0.448665
v 6.029681 0.452121 1.966322
v 5.850241 0.466598 3.346853
v 4.762603 0.602777 4.189943
v 3.606676 0.467893 5.757399
v 1.074719 0.428584 6.056731
v -1.935025 0.337603 5.263471
v -4.414970 0.503134 3.346348
v -4.547732 0.370339 0.382483
v -5.126657 0.560205 -1.194982
v -5.156718 0.528664 -1.726163
v -2.775673 0.756590 -2.105947
v -2.018496 0.675884 -2.664114
v -0.776335 0.644614 -3.164663
v 0.467554 0.719630 -2.925605
v 1.794165 0.800524 -2.530455
v 2.607997 0.599118 -1.820688
v 3.463399 0.627632 -0.784776
v 3.517137 0.554774 0.050012
v 3.807368 0.611809 1.152963
v 3.329277 0.509551 3.455555
v 2.999234 0.672450 4.106969
v 1.916835 0.568769 4.295149
v 0.529986 0.598619 2.901797
v -1.037991 0.702002 2.530172
v -2.205884 0.571618 1.737453
v -3.186245 0.712241 0.737827
v -3.173201 0.603730 -0.473802
v -3.463180 0.685489 -1.228733
v 0.495817 0.674890 -0.135546
vn -0.9977 -0.0506 0.0446
vn -0.0288 -0.9879 0.1523
vn 0.0715 -0.8773 0.4747
vn -0.5480 -0.8288 0.1130
vn 0.4387 -0.2755 0.8554
vn -0.9907 0.0464 -0.1281
vn -0.0397 -0.2878 -0.9569
vn 0.9332 -0.3371 0.1245
vn 0.6648 -0.2809 0.6922
vn -0.8937 -0.2642 0.3626
vn -0.6643 -0.3008 -0.6843
vn 0.8824 -0.3199 0.3451
vn -0.9349 -0.2076 0.2879
vn -0.9526 -0.3030 0.0267
vn -0.9471 0.0928 -0.3071
vn 0.8360 -0.3248 -0.4423
vn -0.4120 -0.2220 0.8837
vn -0.5554 -0.2189 0.8023
vn 0.9199 -0.3232 -0.2222
vn 0.4517 -0.3036 -0.8389
vn -0.9753 -0.2025 0.0881
vn 0.5108 -0.3050 -0.8038
vn -0.2487 -0.1865 0.9504
vn 0.7784 -0.2983 0.5523
vn -0.1652 -0.2878 -0.9433
vn 0.1194 -0.2017 0.9721
vn 0.8080 -0.1122 0.5784
vn -0.1465 0.2137 -0.9658
vn 0.5585 0.1630 0.8133
vn -0.0667 0.1753 -0.9823
vn 0.9115 -0.3934 0.1198
vn -0.7888 0.5018 0.3549
vn -0.2580 0.9546 -0.1490
vn 0.4484 0.8894 0.0885
vn -0.7507 0.6606 -0.0041
vn 0.0580 0.9982 -0.0146
vn -0.2571 0.8906 0.3751
vn 0.4258 0.8956 -0.1289
vn 0.2916 0.8322 -0.4717
vn 0.4604 0.5782 -0.6736
vn -0.0200 0.9958 0.0892
vn 0.1089 0.9938 -0.0231
vn -0.0217 0.9974 0.0690
vn -0.1158 0.9840 -0.1353
vn 0.0249 0.9950 -0.0963
vn -0.0072 0.9921 0.1256
vn -0.0193 0.9980 -0.0596
vn 0.0248 0.9845 -0.1735
vn -0.0738 0.9956 0.0572
vn -0.0170 0.9984 -0.0543
vn 0.0381 0.9988 0.0306
vn -0.1332 0.9895 0.0559
vn -0.1170 0.9916 -0.0555
vn 0.1003 0.9919 -0.0784
vn -0.1034 0.9942 0.0310
vn 0.1097 0.9939 0.0092
vn -0.0419 0.9967 0.0694
vn 0.0850 0.9961 -0.0241
vn -0.0162 0.9975 0.0682
vn -0.0302 0.9924 0.1191
vn -0.0111 0.9959 -0.0893
vn 0.0351 0.9938 0.1054
vn -0.0750 0.9958 -0.0533
vn 0.0600 0.9979 0.0244
vn -0.0037 0.9997 0.0251
vn -0.0863 0.9949 0.0515
vn 0.2209 0.9666 -0.1298
vn 0.0016 0.9990 0.0447
vn 0.0435 0.9971 -0.0630
vn 0.0344 0.9958 0.0847
vn 0.0084 0.9994 -0.0344
vn 0.1346 0.9830 0.1246
vn -0.0658 0.9977 0.0167
vn -0.0634 0.9979 0.0166
vn 0.0181 0.9997 -0.0176
vn 0.0614 0.9963 -0.0607
vn -0.8584 0.3069 -0.4110
vt 0.741989 0.789041
vt 0.738787 0.788907
vt 0.731692 0.786286
vt 0.731575 0.788467
vt 0.677523 0.788365
vt 0.677521 0.787746
vt 0.704890 0.788517
vt 0.705611 0.788172
vt 0.655505 0.787711
vt 0.656061 0.787413
vt 0.730481 0.788708
vt 0.731160 0.788971
vt 0.633585 0.788913
vt 0.632523 0.785991
vt 0.645250 0.785220
vt 0.646090 0.788157
vt 0.732372 0.783317
vt 0.731138 0.785782
vt 0.718074 0.788620
vt 0.718512 0.785691
vt 0.698919 0.785659
vt 0.698823 0.788588
vt 0.638391 0.788465
vt 0.637415 0.785535
vt 0.654832 0.784767
vt 0.655398 0.784464
vt 0.726272 0.788182
vt 0.726856 0.785246
vt 0.742851 0.786120
vt 0.731830 0.786049
vt 0.630900 0.788604
vt 0.629791 0.785676
vt 0.739592 0.785984
vt 0.725708 0.788680
vt 0.726281 0.785753
vt 0.640591 0.788610
vt 0.639653 0.785682
vt 0.705094 0.785588
vt 0.705827 0.785236
vt 0.643418 0.788789
vt 0.642530 0.785864
vt 0.663650 0.788576
vt 0.663122 0.785647
vt 0.678277 0.788452
vt 0.678009 0.785521
vt 0.677239 0.784803
vt 0.645426 0.782790
vt 0.698624 0.783695
vt 0.678006 0.783765
vt 0.636044 0.784475
vt 0.717636 0.784142
vt 0.636723 0.782370
vt 0.727440 0.785918
vt 0.632914 0.785802
vt 0.724595 0.784160
vt 0.640069 0.783535
vt 0.645051 0.782142
vt 0.664082 0.783798
vt 0.681938 0.783336
vt 0.695464 0.782444
vt 0.671033 0.781594
vt 0.664013 0.783332
vt 0.669975 0.783593
vt 0.716385 0.782587
vt 0.710454 0.781973
vt 0.682477 0.782292
vt 0.660638 0.782132
vt 0.693207 0.782939
vt 0.657791 0.784104
vt 0.713883 0.783292
vt 0.703922 0.782670
vt 0.653667 0.783222
vt 0.713996 0.782356
vt 0.656170 0.783714
vt 0.705539 0.783569
vt 0.656634 0.783086
vt 0.682233 0.782678
s 0
usemtl Grass
f 18/1/1 26/2/1 27/3/1 19/4/1
f 14/5/2 24/6/2 25/7/2 15/8/2
f 13/9/3 23/10/3 24/6/3 14/5/3
f 19/4/4 27/3/4 22/11/4 2/12/4
f 11/13/5 37/14/5 38/15/5 12/16/5
f 27/3/6 61/17/6 44/18/6 22/11/6
f 3/19/7 29/20/7 30/21/7 4/22/7
f 10/23/8 36/24/8 37/14/8 11/13/8
f 13/9/9 39/25/9 55/26/9 23/10/9
f 17/27/10 42/28/10 43/29/10 18/1/10
f 2/12/11 28/30/11 29/20/11 3/19/11
f 9/31/12 35/32/12 36/24/12 10/23/12
f 26/2/13 60/33/13 61/17/13 27/3/13
f 16/34/14 41/35/14 42/28/14 17/27/14
f 18/1/15 43/29/15 60/33/15 26/2/15
f 8/36/16 34/37/16 35/32/16 9/31/16
f 25/7/17 57/38/17 40/39/17 15/8/17
f 15/8/18 40/39/18 41/35/18 16/34/18
f 7/40/19 33/41/19 34/37/19 8/36/19
f 6/42/20 32/43/20 33/41/20 7/40/20
f 22/11/21 44/18/21 28/30/21 2/12/21
f 5/44/22 31/45/22 32/43/22 6/42/22
f 24/6/23 56/46/23 57/38/23 25/7/23
f 12/16/24 38/15/24 39/25/24 13/9/24
f 4/22/25 30/21/25 31/45/25 5/44/25
f 23/10/26 55/26/26 56/46/26 24/6/26
f 38/15/27 54/47/27 55/26/27 39/25/27
f 30/21/28 46/48/28 47/49/28 31/45/28
f 37/14/29 53/50/29 54/47/29 38/15/29
f 29/20/30 45/51/30 46/48/30 30/21/30
f 36/24/31 52/52/31 53/50/31 37/14/31
f 42/28/32 59/53/32 60/33/32 43/29/32
f 28/30/33 44/18/33 45/51/33 29/20/33
f 35/32/34 51/54/34 52/52/34 36/24/34
f 41/35/35 58/55/35 59/53/35 42/28/35
f 34/37/36 50/56/36 51/54/36 35/32/36
f 40/39/37 57/38/37 58/55/37 41/35/37
f 33/41/38 49/57/38 50/56/38 34/37/38
f 32/43/39 48/58/39 49/57/39 33/41/39
f 31/45/40 47/49/40 48/58/40 32/43/40
f 56/46/41 74/59/41 75/60/41 57/38/41
f 48/58/42 66/61/42 67/62/42 49/57/42
f 55/26/43 73/63/43 74/59/43 56/46/43
f 61/17/44 79/64/44 62/65/44 44/18/44
f 47/49/45 65/66/45 66/61/45 48/58/45
f 54/47/46 72/67/46 73/63/46 55/26/46
f 46/48/47 64/68/47 65/66/47 47/49/47
f 53/50/48 71/69/48 72/67/48 54/47/48
f 60/33/49 78/70/49 79/64/49 61/17/49
f 45/51/50 63/71/50 64/68/50 46/48/50
f 52/52/51 70/72/51 71/69/51 53/50/51
f 59/53/52 77/73/52 78/70/52 60/33/52
f 44/18/53 62/65/53 63/71/53 45/51/53
f 51/54/54 69/74/54 70/72/54 52/52/54
f 58/55/55 76/75/55 77/73/55 59/53/55
f 50/56/56 68/76/56 69/74/56 51/54/56
f 57/38/57 75/60/57 76/75/57 58/55/57
f 49/57/58 67/62/58 68/76/58 50/56/58
f 62/65/59 79/64/59 80/77/59
f 79/64/60 78/70/60 80/77/60
f 78/70/61 77/73/61 80/77/61
f 77/73/62 76/75/62 80/77/62
f 76/75/63 75/60/63 80/77/63
f 75/60/64 74/59/64 80/77/64
f 74/59/65 73/63/65 80/77/65
f 73/63/66 72/67/66 80/77/66
f 72/67/67 71/69/67 80/77/67
f 71/69/68 70/72/68 80/77/68
f 70/72/69 69/74/69 80/77/69
f 69/74/70 68/76/70 80/77/70
f 68/76/71 67/62/71 80/77/71
f 67/62/72 66/61/72 80/77/72
f 66/61/73 65/66/73 80/77/73
f 65/66/74 64/68/74 80/77/74
f 64/68/75 63/71/75 80/77/75
f 63/71/76 62/65/76 80/77/76
f 52/52/77 10/23/77 36/24/77
l 1 21
l 21 20
