# Blender 4.0.2
# www.blender.org
mtllib Islandbase.mtl
o Vert
v -5.176027 -0.054588 -3.336291
v -3.659062 -0.013864 -4.826910
v -1.427369 -0.010186 -4.920507
v 0.954355 0.005564 -5.342489
v 2.650045 -0.008828 -4.259378
v 4.995467 -0.033494 -2.987480
v 5.323174 -0.012751 -1.660922
v 6.446528 -0.012075 0.461792
v 5.826750 -0.046462 1.973812
v 5.625743 -0.047928 3.527107
v 4.685674 0.039802 4.039591
v 3.586638 0.091485 5.617216
v 1.069308 0.085524 5.983954
v -2.214267 0.038007 5.058011
v -4.543947 -0.020906 3.429180
v -4.609421 0.036844 0.315050
v -5.201539 -0.108486 -1.153875
v -5.039482 0.003844 -1.879644
v -3.426407 -1.439029 -2.280553
v -2.273628 -1.333780 -3.232826
v -0.807344 -1.281902 -3.270520
v 0.765955 -1.312548 -3.533074
v 1.737111 -1.160985 -2.633005
v 3.213347 -1.287436 -1.818546
v 3.611819 -1.273271 -1.106257
v 4.063704 -1.079190 0.281790
v 3.968316 -1.408553 1.136663
v 4.122292 -1.497200 2.261884
v 3.158788 -1.142827 2.552861
v 2.526017 -1.400538 3.074473
v 0.821073 -1.208187 2.807823
v -1.314216 -1.270807 3.290095
v -2.886583 -1.408346 2.235444
v -3.081734 -1.306267 0.276940
v -3.919935 -1.185145 -0.451973
v -3.385016 -1.322289 -1.300243
v -2.294042 -2.785133 -1.625677
v -1.447175 -2.675614 -2.225607
v -0.434839 -2.611749 -2.165930
v 0.644348 -2.715519 -2.508795
v 1.540159 -2.856829 -2.183763
v 2.495098 -2.798219 -1.398389
v 2.675801 -2.724516 -0.822883
v 3.164862 -2.760428 0.168360
v 2.943939 -2.800370 0.784994
v 2.805576 -2.619578 1.447418
v 2.406988 -2.740742 1.873049
v 1.902798 -2.819273 2.218052
v 0.692097 -2.763997 2.121991
v -0.820018 -2.804953 2.433967
v -1.806180 -2.667681 1.468450
v -2.189598 -2.811699 0.247069
v -2.502965 -2.572929 -0.348807
v -1.997334 -2.538249 -0.862289
v -0.251561 -5.947208 -0.479457
v -1.062159 -4.845039 -0.938446
v -0.625672 -4.840017 -1.325849
v -0.070594 -4.877851 -1.431264
v 0.464347 -4.620315 -1.054843
v 0.961842 -4.826910 -1.133165
v 1.470224 -4.815383 -0.740188
v 1.628875 -4.812569 -0.477767
v 1.771519 -4.756670 0.042001
v 1.590525 -4.737422 0.334163
v 1.685892 -4.753864 0.730933
v 1.485336 -4.847958 1.013272
v 1.202049 -4.825805 1.081580
v 0.571563 -4.660516 0.729567
v -0.235745 -4.825484 1.247706
v -0.987131 -4.946443 0.868178
v -0.896044 -4.776104 0.022122
v -1.466235 -4.945198 -0.154169
v -1.182289 -4.913074 -0.610826
v -0.080231 -5.987059 -0.692632
v 0.178900 -5.858691 -0.547773
v 0.458034 -5.996423 -0.749167
v 0.601226 -5.891607 -0.488489
v 0.854456 -5.912215 -0.371664
v 0.731901 -5.785850 -0.191086
v 1.156842 -6.033259 -0.031248
v 0.989455 -5.970909 0.154520
v 0.991296 -5.917694 0.256637
v 0.889674 -5.937213 0.388300
v 0.742385 -6.073144 0.612456
v 0.465282 -6.027626 0.530264
v 0.123164 -5.756850 0.260312
v -0.246627 -5.974138 0.299969
v -0.388998 -6.133168 0.106838
v -0.507619 -6.123655 -0.113303
v -0.285708 -6.005906 -0.354841
v 0.358942 -6.478756 -0.093722
vn -0.2052 -0.6131 -0.7629
vn 0.2809 -0.6173 0.7349
vn -0.5839 -0.7105 -0.3927
vn 0.0355 -0.6099 -0.7917
vn 0.7248 -0.6884 0.0292
vn -0.6997 -0.5468 0.4597
vn -0.4052 -0.6759 -0.6156
vn 0.8435 -0.5350 0.0470
vn -0.7837 -0.6026 0.1505
vn 0.8186 -0.4953 -0.2908
vn -0.4826 -0.6272 0.6113
vn 0.7924 -0.5188 -0.3210
vn 0.2046 -0.4176 0.8853
vn 0.5064 -0.3573 -0.7848
vn -0.1472 -0.4257 0.8928
vn -0.7415 -0.6135 0.2717
vn 0.5012 -0.4131 -0.7604
vn 0.5999 -0.5630 0.5686
vn 0.0898 -0.7673 0.6350
vn -0.1047 -0.8023 -0.5876
vn 0.4423 -0.8516 0.2813
vn 0.3807 -0.8043 -0.4563
vn -0.6491 -0.7539 0.1016
vn -0.0290 -0.8960 0.4431
vn 0.2361 -0.8373 -0.4931
vn -0.0200 -0.8858 0.4636
vn 0.5188 -0.8377 -0.1705
vn -0.2961 -0.8196 0.4905
vn 0.4759 -0.8638 -0.1656
vn -0.6487 -0.7609 0.0094
vn 0.4941 -0.8693 0.0157
vn -0.3506 -0.8305 -0.4328
vn -0.6459 -0.6326 0.4273
vn 0.6467 -0.7626 -0.0143
vn -0.0102 -0.7843 -0.6203
vn -0.5533 -0.7999 -0.2324
vn 0.8028 -0.4973 -0.3290
vn -0.5440 -0.4672 0.6970
vn 0.8242 -0.4867 -0.2894
vn 0.3319 -0.4910 0.8055
vn 0.5555 -0.5061 -0.6597
vn -0.2612 -0.4856 0.8343
vn -0.9042 -0.3734 0.2075
vn 0.0125 -0.5445 -0.8387
vn 0.4246 -0.5253 0.7374
vn 0.0624 -0.4616 -0.8849
vn 0.7242 -0.5178 0.4554
vn -0.7186 -0.3375 -0.6081
vn -0.0215 -0.3511 -0.9361
vn 0.8334 -0.5400 0.1176
vn -0.6329 -0.3449 0.6931
vn -0.4970 -0.5063 -0.7047
vn 0.7539 -0.5735 0.3204
vn -0.8795 -0.4609 0.1185
vn 0.7064 -0.4009 0.5834
vn -0.8822 -0.4693 0.0384
vn 0.6082 -0.4694 -0.6402
vn -0.0419 -0.6356 0.7709
vn 0.8181 -0.5666 0.0986
vn 0.1506 -0.4404 0.8851
vn 0.4641 -0.5391 -0.7029
vn -0.4520 -0.1278 0.8828
vn -0.6544 -0.6401 -0.4026
vn 0.1965 -0.3813 -0.9033
vn 0.5648 -0.5452 0.6195
vn 0.2492 -0.4156 -0.8747
vn 0.7206 -0.5902 0.3640
vn -0.6045 -0.5669 -0.5597
vn 0.1015 -0.5520 -0.8276
vn 0.8865 -0.4409 -0.1402
vn -0.4488 -0.2165 0.8670
vn -0.5739 -0.6109 -0.5454
vn -0.2986 -0.7485 0.5921
vn -0.3856 -0.7895 -0.4775
vn 0.8248 -0.5077 -0.2489
vn 0.7011 -0.7125 0.0286
vn -0.6479 -0.5635 -0.5126
vn 0.5364 -0.7900 0.2969
vn -0.2858 -0.7315 -0.6191
vn 0.5850 -0.3617 -0.7259
vn 0.4741 -0.7843 0.4002
vn -0.3772 -0.9115 0.1639
vn -0.5275 -0.8043 -0.2736
vn 0.3643 -0.7331 0.5743
vn -0.1430 -0.7097 0.6898
vn 0.2119 -0.2469 -0.9456
vn 0.2960 -0.3409 0.8923
vn 0.6924 -0.2792 0.6653
vn -0.7452 -0.4736 0.4694
vn 0.2891 -0.6134 -0.7349
vn -0.3747 0.9252 0.0595
vn -0.0065 0.9996 -0.0283
vn 0.1004 0.9948 0.0139
vn 0.2378 0.9694 -0.0612
vn 0.4052 0.8950 0.1864
vt 0.564463 0.486023
vt 0.563721 0.474109
vt 0.554946 0.474624
vt 0.552096 0.486125
vt 0.589876 0.483648
vt 0.581723 0.468880
vt 0.585056 0.470583
vt 0.598852 0.480422
vt 0.529875 0.484665
vt 0.541385 0.473946
vt 0.536639 0.473104
vt 0.524310 0.485319
vt 0.546666 0.474159
vt 0.540491 0.485695
vt 0.585596 0.469746
vt 0.595552 0.482203
vt 0.538972 0.470309
vt 0.530908 0.483770
vt 0.539352 0.472650
vt 0.530495 0.484300
vt 0.586902 0.470862
vt 0.595155 0.485806
vt 0.541659 0.470105
vt 0.530619 0.481308
vt 0.581605 0.472305
vt 0.589365 0.484962
vt 0.550677 0.467474
vt 0.545378 0.481763
vt 0.579575 0.472300
vt 0.585237 0.485271
vt 0.565390 0.468315
vt 0.566920 0.482800
vt 0.571133 0.472637
vt 0.572527 0.486755
vt 0.577177 0.467645
vt 0.584223 0.480644
vt 0.608205 0.494881
vt 0.621976 0.494131
vt 0.565457 0.496646
vt 0.547738 0.496460
vt 0.597332 0.495326
vt 0.578713 0.496357
vt 0.517637 0.495831
vt 0.515153 0.496013
vt 0.569904 0.494560
vt 0.598371 0.495930
vt 0.534388 0.494533
vt 0.603076 0.495830
vt 0.512163 0.494441
vt 0.617051 0.495355
vt 0.517071 0.495832
vt 0.611985 0.495169
vt 0.530954 0.496417
vt 0.502570 0.495160
vt 0.574334 0.453323
vt 0.572761 0.453784
vt 0.549579 0.450007
vt 0.556455 0.450340
vt 0.571244 0.454227
vt 0.563843 0.452887
vt 0.566724 0.454814
vt 0.569765 0.450678
vt 0.549465 0.454322
vt 0.548326 0.453155
vt 0.562511 0.456433
vt 0.572345 0.450613
vt 0.557944 0.454895
vt 0.574011 0.452036
vt 0.545663 0.452029
vt 0.553262 0.455033
vt 0.572900 0.452947
vt 0.550643 0.453188
vt 0.567420 0.442336
vt 0.568830 0.442209
vt 0.555139 0.441009
vt 0.556397 0.441973
vt 0.565025 0.444735
vt 0.559708 0.444000
vt 0.566044 0.444025
vt 0.562825 0.440955
vt 0.563804 0.444456
vt 0.565356 0.440348
vt 0.556386 0.443955
vt 0.556082 0.443173
vt 0.562509 0.444113
vt 0.566613 0.442099
vt 0.560125 0.444867
vt 0.567476 0.442576
vt 0.554112 0.441601
vt 0.557873 0.444072
vt 0.561758 0.439623
s 0
usemtl Grass
f 22/1/1 40/2/1 39/3/1 21/4/1
f 29/5/2 47/6/2 46/7/2 28/8/2
f 36/9/3 54/10/3 53/11/3 35/12/3
f 21/4/4 39/3/4 38/13/4 20/14/4
f 28/8/5 46/7/5 45/15/5 27/16/5
f 35/12/6 53/11/6 52/17/6 34/18/6
f 20/14/7 38/13/7 37/19/7 19/20/7
f 27/16/8 45/15/8 44/21/8 26/22/8
f 34/18/9 52/17/9 51/23/9 33/24/9
f 26/22/10 44/21/10 43/25/10 25/26/10
f 33/24/11 51/23/11 50/27/11 32/28/11
f 25/26/12 43/25/12 42/29/12 24/30/12
f 32/28/13 50/27/13 49/31/13 31/32/13
f 24/30/14 42/29/14 41/33/14 23/34/14
f 31/32/15 49/31/15 48/35/15 30/36/15
f 19/20/16 37/19/16 54/10/16 36/9/16
f 23/34/17 41/33/17 40/2/17 22/1/17
f 30/36/18 48/35/18 47/6/18 29/5/18
f 11/37/19 29/5/19 28/8/19 10/38/19
f 4/39/20 22/1/20 21/4/20 3/40/20
f 12/41/21 30/36/21 29/5/21 11/37/21
f 5/42/22 23/34/22 22/1/22 4/39/22
f 1/43/23 19/20/23 36/9/23 18/44/23
f 13/45/24 31/32/24 30/36/24 12/41/24
f 6/46/25 24/30/25 23/34/25 5/42/25
f 14/47/26 32/28/26 31/32/26 13/45/26
f 7/48/27 25/26/27 24/30/27 6/46/27
f 15/49/28 33/24/28 32/28/28 14/47/28
f 8/50/29 26/22/29 25/26/29 7/48/29
f 16/51/30 34/18/30 33/24/30 15/49/30
f 9/52/31 27/16/31 26/22/31 8/50/31
f 2/53/32 20/14/32 19/20/32 1/43/32
f 17/54/33 35/12/33 34/18/33 16/51/33
f 10/38/34 28/8/34 27/16/34 9/52/34
f 3/40/35 21/4/35 20/14/35 2/53/35
f 18/44/36 36/9/36 35/12/36 17/54/36
f 44/21/37 63/55/37 62/56/37 43/25/37
f 51/23/38 70/57/38 69/58/38 50/27/38
f 43/25/39 62/56/39 61/59/39 42/29/39
f 50/27/40 69/58/40 68/60/40 49/31/40
f 42/29/41 61/59/41 60/61/41 41/33/41
f 49/31/42 68/60/42 67/62/42 48/35/42
f 37/19/43 56/63/43 73/64/43 54/10/43
f 41/33/44 60/61/44 59/65/44 40/2/44
f 48/35/45 67/62/45 66/66/45 47/6/45
f 40/2/46 59/65/46 58/67/46 39/3/46
f 47/6/47 66/66/47 65/68/47 46/7/47
f 54/10/48 73/64/48 72/69/48 53/11/48
f 39/3/49 58/67/49 57/70/49 38/13/49
f 46/7/50 65/68/50 64/71/50 45/15/50
f 53/11/51 72/69/51 71/72/51 52/17/51
f 38/13/52 57/70/52 56/63/52 37/19/52
f 45/15/53 64/71/53 63/55/53 44/21/53
f 52/17/54 71/72/54 70/57/54 51/23/54
f 64/71/55 81/73/55 80/74/55 63/55/55
f 71/72/56 88/75/56 87/76/56 70/57/56
f 63/55/57 80/74/57 79/77/57 62/56/57
f 70/57/58 87/76/58 86/78/58 69/58/58
f 62/56/59 79/77/59 78/79/59 61/59/59
f 69/58/60 86/78/60 85/80/60 68/60/60
f 61/59/61 78/79/61 77/81/61 60/61/61
f 68/60/62 85/80/62 84/82/62 67/62/62
f 56/63/63 55/83/63 90/84/63 73/64/63
f 60/61/64 77/81/64 76/85/64 59/65/64
f 67/62/65 84/82/65 83/86/65 66/66/65
f 59/65/66 76/85/66 75/87/66 58/67/66
f 66/66/67 83/86/67 82/88/67 65/68/67
f 73/64/68 90/84/68 89/89/68 72/69/68
f 58/67/69 75/87/69 74/90/69 57/70/69
f 65/68/70 82/88/70 81/73/70 64/71/70
f 72/69/71 89/89/71 88/75/71 71/72/71
f 57/70/72 74/90/72 55/83/72 56/63/72
f 85/80/73 91/91/73 84/82/73
f 55/83/74 91/91/74 90/84/74
f 77/81/75 91/91/75 76/85/75
f 84/82/76 91/91/76 83/86/76
f 76/85/77 91/91/77 75/87/77
f 83/86/78 91/91/78 82/88/78
f 90/84/79 91/91/79 89/89/79
f 75/87/80 91/91/80 74/90/80
f 82/88/81 91/91/81 81/73/81
f 89/89/82 91/91/82 88/75/82
f 74/90/83 91/91/83 55/83/83
f 81/73/84 91/91/84 80/74/84
f 88/75/85 91/91/85 87/76/85
f 80/74/86 91/91/86 79/77/86
f 87/76/87 91/91/87 86/78/87
f 79/77/88 91/91/88 78/79/88
f 86/78/89 91/91/89 85/80/89
f 78/79/90 91/91/90 77/81/90
f 17/54/91 16/51/91 18/44/91
f 13/45/92 12/41/92 14/47/92
f 10/38/93 9/52/93 11/37/93
f 18/44/94 16/51/94 1/43/94
f 9/52/95 8/50/95 11/37/95
