# Blender v2.93.2 OBJ File: 'rock.blend'
# www.blender.org
mtllib stone.mtl
o defaultMaterial_defaultMaterial.001
v 0.034045 0.274396 0.111630
v 0.085054 0.294361 0.053767
v -0.070044 0.254086 -0.054247
v -0.214161 0.103078 -0.133898
v -0.217843 0.118161 -0.076508
v -0.205985 0.146799 -0.072589
v -0.067793 0.134650 -0.183647
v -0.082857 0.198308 -0.129748
v -0.051202 0.153107 -0.175510
v -0.057178 0.070478 0.153333
v -0.166062 0.068992 0.083024
v -0.158688 -0.001107 0.034193
v -0.192234 0.125618 0.037838
v -0.195529 0.164915 -0.055243
v -0.217843 0.118161 -0.076508
v 0.170139 0.170720 -0.057914
v 0.171412 0.266988 0.050700
v 0.206845 0.223888 0.098879
v 0.086824 0.180776 -0.086972
v 0.170139 0.170720 -0.057914
v 0.036884 -0.001107 -0.122366
v 0.086824 0.180776 -0.086972
v -0.051202 0.153107 -0.175510
v -0.070044 0.254086 -0.054247
v -0.176247 0.173892 0.024306
v -0.105436 0.241663 -0.033968
v -0.195529 0.164915 -0.055243
v -0.196760 -0.001107 -0.124006
v -0.222122 0.086891 -0.129103
v -0.214161 0.103078 -0.133898
v -0.195529 0.164915 -0.055243
v -0.105436 0.241663 -0.033968
v -0.082857 0.198308 -0.129748
v -0.004769 0.014294 0.144372
v 0.082241 0.130702 0.214408
v -0.057178 0.070478 0.153333
v 0.094071 0.150381 0.212359
v 0.089391 0.060107 0.187702
v 0.211261 0.063451 0.105034
v -0.004769 0.014294 0.144372
v -0.023573 -0.001107 0.121109
v 0.159860 -0.001107 0.015713
v -0.192234 0.125618 0.037838
v -0.217843 0.118161 -0.076508
v -0.158688 -0.001107 0.034193
v -0.023573 -0.001107 0.121109
v -0.158688 -0.001107 0.034193
v -0.050896 -0.001107 -0.169243
v 0.211261 0.063451 0.105034
v 0.159860 -0.001107 0.015713
v 0.170139 0.170720 -0.057914
v 0.206845 0.223888 0.098879
v 0.094071 0.150381 0.212359
v 0.243091 0.127028 0.101957
v 0.085054 0.294361 0.053767
v 0.034045 0.274396 0.111630
v 0.099929 0.200712 0.191196
v -0.057178 0.070478 0.153333
v 0.082241 0.130702 0.214408
v 0.034045 0.274396 0.111630
v -0.105436 0.241663 -0.033968
v -0.101789 0.237371 0.041378
v -0.214161 0.103078 -0.133898
v -0.222122 0.086891 -0.129103
v -0.217843 0.118161 -0.076508
v -0.157514 0.129836 -0.155250
v -0.158688 -0.001107 0.034193
v -0.023573 -0.001107 0.121109
v -0.057178 0.070478 0.153333
v -0.023573 -0.001107 0.121109
v -0.004769 0.014294 0.144372
v -0.057178 0.070478 0.153333
v -0.176247 0.173892 0.024306
v -0.205985 0.146799 -0.072589
v 0.206845 0.223888 0.098879
v 0.244003 0.131078 0.099905
v 0.170139 0.170720 -0.057914
v 0.170139 0.170720 -0.057914
v 0.086824 0.180776 -0.086972
v 0.171412 0.266988 0.050700
v 0.036884 -0.001107 -0.122366
v -0.050896 -0.001107 -0.169243
v -0.051202 0.153107 -0.175510
v -0.050896 -0.001107 -0.169243
v -0.067793 0.134650 -0.183647
v -0.051202 0.153107 -0.175510
v -0.051202 0.153107 -0.175510
v 0.086824 0.180776 -0.086972
v 0.036884 -0.001107 -0.122366
v -0.082857 0.198308 -0.129748
v 0.085054 0.294361 0.053767
v 0.171412 0.266988 0.050700
v -0.101789 0.237371 0.041378
v -0.214161 0.103078 -0.133898
v -0.157514 0.129836 -0.155250
v -0.196760 -0.001107 -0.124006
v -0.157514 0.129836 -0.155250
v -0.067793 0.134650 -0.183647
v -0.050896 -0.001107 -0.169243
v -0.196760 -0.001107 -0.124006
v -0.157514 0.129836 -0.155250
v -0.050896 -0.001107 -0.169243
v -0.070044 0.254086 -0.054247
v -0.157514 0.129836 -0.155250
v -0.214161 0.103078 -0.133898
v -0.205985 0.146799 -0.072589
v 0.089391 0.060107 0.187702
v 0.211261 0.063451 0.105034
v 0.243091 0.127028 0.101957
v 0.094071 0.150381 0.212359
v 0.082241 0.130702 0.214408
v 0.211261 0.063451 0.105034
v 0.089391 0.060107 0.187702
v 0.159860 -0.001107 0.015713
v 0.089391 0.060107 0.187702
v -0.004769 0.014294 0.144372
v 0.159860 -0.001107 0.015713
v -0.222122 0.086891 -0.129103
v -0.196760 -0.001107 -0.124006
v -0.217843 0.118161 -0.076508
v -0.196760 -0.001107 -0.124006
v -0.158688 -0.001107 0.034193
v -0.217843 0.118161 -0.076508
v -0.158688 -0.001107 0.034193
v -0.166062 0.068992 0.083024
v -0.192234 0.125618 0.037838
v -0.196760 -0.001107 -0.124006
v 0.036884 -0.001107 -0.122366
v 0.159860 -0.001107 0.015713
v 0.159860 -0.001107 0.015713
v 0.036884 -0.001107 -0.122366
v 0.170139 0.170720 -0.057914
v 0.170139 0.170720 -0.057914
v 0.244003 0.131078 0.099905
v 0.211261 0.063451 0.105034
v 0.244003 0.131078 0.099905
v 0.243091 0.127028 0.101957
v 0.211261 0.063451 0.105034
v 0.243091 0.127028 0.101957
v 0.244003 0.131078 0.099905
v 0.206845 0.223888 0.098879
v 0.099929 0.200712 0.191196
v 0.206845 0.223888 0.098879
v 0.171412 0.266988 0.050700
v 0.099929 0.200712 0.191196
v -0.101789 0.237371 0.041378
v 0.099929 0.200712 0.191196
v 0.094071 0.150381 0.212359
v -0.176247 0.173892 0.024306
v -0.166062 0.068992 0.083024
v -0.192234 0.125618 0.037838
vt 0.393683 0.204255
vt 0.364544 0.187823
vt 0.358604 0.278693
vt 0.350179 0.046761
vt 0.354101 0.068577
vt 0.364006 0.070839
vt 0.253628 0.529894
vt 0.228899 0.519390
vt 0.246482 0.537996
vt 0.123097 0.190398
vt 0.134314 0.129561
vt 0.112355 0.123387
vt 0.352188 0.111120
vt 0.369682 0.077774
vt 0.354101 0.068577
vt 0.940115 0.451534
vt 0.910495 0.407301
vt 0.890457 0.420899
vt 0.231880 0.643207
vt 0.235482 0.645765
vt 0.301577 0.580654
vt 0.304238 0.170921
vt 0.309378 0.291187
vt 0.358604 0.278693
vt 0.403439 0.320449
vt 0.372207 0.292957
vt 0.380293 0.341587
vt 0.303362 0.460685
vt 0.271130 0.447862
vt 0.265199 0.452186
vt 0.380293 0.341587
vt 0.372207 0.292957
vt 0.333368 0.297859
vt 0.100467 0.211406
vt 0.131938 0.269013
vt 0.123097 0.190398
vt 0.097797 0.242441
vt 0.094433 0.229592
vt 0.016346 0.296097
vt 0.352188 0.111120
vt 0.354101 0.068577
vt 0.304238 0.105611
vt 0.094433 0.229592
vt 0.097797 0.152500
vt 0.005342 0.167412
vt 0.873173 0.478020
vt 0.897110 0.505501
vt 0.940115 0.451534
vt 0.166962 0.323697
vt 0.138485 0.275863
vt 0.129719 0.335432
vt 0.364544 0.187823
vt 0.393683 0.204255
vt 0.403439 0.163992
vt 0.123097 0.190398
vt 0.131938 0.269013
vt 0.194337 0.243855
vt 0.372207 0.292957
vt 0.396586 0.280332
vt 0.350179 0.046761
vt 0.344417 0.048095
vt 0.354101 0.068577
vt 0.255395 0.482358
vt 0.112355 0.123387
vt 0.097797 0.198725
vt 0.123097 0.190398
vt 0.097797 0.198725
vt 0.100467 0.211406
vt 0.123097 0.190398
vt 0.369682 0.107478
vt 0.364006 0.070839
vt 0.890457 0.420899
vt 0.882608 0.456697
vt 0.940115 0.451534
vt 0.940115 0.451534
vt 0.942031 0.447848
vt 0.910495 0.407301
vt 0.301577 0.580654
vt 0.303362 0.537923
vt 0.246482 0.537996
vt 0.303362 0.537923
vt 0.253628 0.529894
vt 0.246482 0.537996
vt 0.246482 0.537996
vt 0.231880 0.643207
vt 0.301577 0.580654
vt 0.333368 0.297859
vt 0.364544 0.187823
vt 0.344358 0.148294
vt 0.396586 0.280332
vt 0.265199 0.452186
vt 0.255395 0.482358
vt 0.303362 0.460685
vt 0.255395 0.482358
vt 0.253628 0.529894
vt 0.303362 0.537923
vt 0.303362 0.460685
vt 0.255395 0.482358
vt 0.303362 0.537923
vt 0.358604 0.278693
vt 0.337203 0.339487
vt 0.354932 0.364194
vt 0.375816 0.349745
vt 0.108130 0.265057
vt 0.108462 0.316050
vt 0.129719 0.335432
vt 0.138485 0.275863
vt 0.138485 0.275863
vt 0.131938 0.269013
vt 0.108130 0.265057
vt 0.034240 0.335924
vt 0.090247 0.293853
vt 0.016346 0.296097
vt 0.090247 0.293853
vt 0.097797 0.242441
vt 0.016346 0.296097
vt 0.344417 0.048095
vt 0.310794 0.047090
vt 0.354101 0.068577
vt 0.310794 0.047090
vt 0.304238 0.105611
vt 0.354101 0.068577
vt 0.304238 0.105611
vt 0.328825 0.125976
vt 0.352188 0.111120
vt 0.054741 0.107939
vt 0.000000 0.215858
vt 0.016346 0.296097
vt 0.940115 0.451534
vt 0.882608 0.456697
vt 0.873173 0.478020
vt 0.882608 0.456697
vt 0.881457 0.457891
vt 0.873173 0.478020
vt 0.129719 0.335432
vt 0.131279 0.335924
vt 0.166962 0.323697
vt 0.157875 0.279752
vt 0.351260 0.125976
vt 0.344358 0.148294
vt 0.157875 0.279752
vt 0.194337 0.167528
vt 0.157875 0.279752
vt 0.138485 0.275863
vt 0.177155 0.125159
vt 0.134314 0.129561
vt 0.159682 0.115637
vt 0.108462 0.316050
vt 0.897110 0.505501
vt 0.942031 0.509131
vt 0.940115 0.451534
vn -0.2952 0.9530 0.0686
vn -0.9037 0.3964 -0.1622
vn -0.2734 0.5831 -0.7650
vn -0.4508 -0.5417 0.7095
vn -0.9170 0.3548 0.1822
vn 0.8759 0.3559 -0.3257
vn 0.3376 0.0896 -0.9370
vn 0.2321 0.7649 -0.6009
vn -0.6568 0.7504 0.0745
vn -0.2893 -0.1383 -0.9472
vn -0.5145 0.7291 -0.4513
vn -0.2370 -0.3647 0.9005
vn 0.2303 -0.8867 0.4009
vn -0.9398 -0.2553 0.2271
vn 0.0000 -1.0000 -0.0000
vn 0.9054 -0.2118 -0.3679
vn 0.6014 0.2492 0.7591
vn 0.2747 0.8082 0.5210
vn -0.5046 0.3839 0.7733
vn -0.9036 0.3964 -0.1622
vn -0.4572 -0.5346 0.7108
vn -0.4494 -0.5335 0.7165
vn -0.9170 0.3548 0.1823
vn 0.8795 0.3485 -0.3241
vn 0.3067 0.7105 -0.6333
vn 0.4708 -0.0349 -0.8816
vn 0.4711 -0.0349 -0.8814
vn 0.5375 0.0165 -0.8431
vn 0.2214 0.7660 -0.6035
vn 0.2276 0.7592 -0.6098
vn 0.2194 0.7606 -0.6111
vn -0.2913 -0.1385 -0.9465
vn -0.2922 -0.1368 -0.9465
vn -0.2934 -0.1378 -0.9460
vn 0.5537 -0.2386 0.7978
vn 0.5486 -0.2466 0.7989
vn 0.3150 -0.8460 0.4302
vn 0.2389 -0.8798 0.4110
vn -0.9387 -0.2573 0.2293
vn -0.9398 -0.2562 0.2262
vn -0.9404 -0.2554 0.2246
vn 0.7804 -0.4134 -0.4691
vn 0.5486 -0.2466 0.7988
vn 0.7092 -0.3131 -0.6316
usemtl DefaultMaterial.001
s off
f 1/1/1 2/2/1 3/3/1
f 4/4/2 5/5/2 6/6/2
f 7/7/3 8/8/3 9/9/3
f 10/10/4 11/11/4 12/12/4
f 13/13/5 14/14/5 15/15/5
f 16/16/6 17/17/6 18/18/6
f 19/19/7 20/20/7 21/21/7
f 22/22/8 23/23/8 24/24/8
f 25/25/9 26/26/9 27/27/9
f 28/28/10 29/29/10 30/30/10
f 31/31/11 32/32/11 33/33/11
f 34/34/12 35/35/12 36/36/12
f 40/37/13 41/38/13 42/39/13
f 43/40/14 44/41/14 45/42/14
f 46/43/15 47/44/15 48/45/15
f 49/46/16 50/47/16 51/48/16
f 52/49/17 53/50/17 54/51/17
f 55/52/18 56/53/18 57/54/18
f 58/55/19 59/56/19 60/57/19
f 3/3/1 61/58/1 62/59/1
f 62/59/1 1/1/1 3/3/1
f 63/60/20 64/61/20 65/62/20
f 7/7/3 66/63/3 8/8/3
f 67/64/21 68/65/21 69/66/21
f 70/67/22 71/68/22 72/69/22
f 73/70/5 14/14/5 13/13/5
f 14/14/23 74/71/23 15/15/23
f 75/72/24 76/73/24 77/74/24
f 78/75/25 79/76/25 80/77/25
f 81/78/26 82/79/26 83/80/26
f 84/81/27 85/82/27 86/83/27
f 87/84/28 88/85/28 89/86/28
f 90/87/29 24/24/29 23/23/29
f 24/24/30 91/88/30 22/22/30
f 91/88/31 92/89/31 22/22/31
f 25/25/9 93/90/9 26/26/9
f 94/91/32 95/92/32 96/93/32
f 97/94/33 98/95/33 99/96/33
f 100/97/34 101/98/34 102/99/34
f 32/32/11 103/100/11 33/33/11
f 33/33/11 104/101/11 31/31/11
f 104/101/11 105/102/11 106/103/11
f 31/31/11 104/101/11 106/103/11
f 34/34/12 107/104/12 35/35/12
f 108/105/35 109/106/35 110/107/35
f 37/108/36 111/109/36 38/110/36
f 112/111/37 113/112/37 114/113/37
f 115/114/38 116/115/38 117/116/38
f 118/117/39 119/118/39 120/119/39
f 121/120/40 122/121/40 123/122/40
f 124/123/41 125/124/41 126/125/41
f 47/44/15 127/126/15 48/45/15
f 48/45/15 128/127/15 46/43/15
f 128/127/15 129/128/15 46/43/15
f 133/129/42 134/130/42 135/131/42
f 136/132/42 137/133/42 138/134/42
f 139/135/17 140/136/17 141/137/17
f 52/49/17 142/138/17 53/50/17
f 143/139/18 144/140/18 57/54/18
f 144/140/18 55/52/18 57/54/18
f 145/141/19 60/57/19 59/56/19
f 60/57/19 146/142/19 58/55/19
f 147/143/19 59/56/19 148/144/19
f 146/142/19 149/145/19 150/146/19
f 149/145/19 151/147/19 150/146/19
f 150/146/19 58/55/19 146/142/19
s 1
f 37/108/43 38/110/43 39/148/43
f 130/149/44 131/150/44 132/151/44
